# xmcd
#
# Track frame offsets: 
#        150
#        16352
#        33902
#        50905
#        68177
#        85982
#        98925
#        117965
#        130762
#        147327
#        165077
#        181062
#
# Disc length: 2677 seconds
#
# Revision: 3
# Processed by: cddbd v1.5.2PL0 Copyright (c) Steve Scherf et al.
# Submitted via: ExactAudioCopy v0.99pb5
#
DISCID=9b0a730c
DTITLE=KENNY ROGERS - 25 GREATEST HITS
DYEAR=1994
DGENRE=Country
TTITLE0=Lucille
TTITLE1=Lady
TTITLE2=Love Lifted Me
TTITLE3=We've Got Tonight
TTITLE4=Scarlet Fever
TTITLE5=Love Or Something Like It
TTITLE6=She Believes In Me
TTITLE7=Ruby Don't Take Your Love To Town
TTITLE8=Don't Fall In Love With A Dreamer
TTITLE9=You Were A Good Friend
TTITLE10=The Gambler
TTITLE11=Through The Years
EXTD=YEAR: 1987 ID3G: 2
EXTT0=
EXTT1=
EXTT2=
EXTT3=
EXTT4=
EXTT5=
EXTT6=
EXTT7=
EXTT8=
EXTT9=
EXTT10=
EXTT11=
PLAYORDER=
